REM DIRINDEX 1\2\6,1\2\7,1\2\8,1\2\9,1\3\10,1\3\11,1\4\12,1\4\13,1\4\14,1\5\15,1\5\16,1\5\17
REM DIRNAME folder01,folder02,folder03,folder04,folder05,folder06,folder07,folder08,folder09,folder10,folder11,folder12,folder13,folder14,folder15,folder16,folder17
TITLE ""
FILE "1400_2_sec03_0201_0215.mp3" MP3
  TRACK 01 AUDIO
    TITLE "0:"
    INDEX 01 00:00:00
  TRACK 02 AUDIO
    TITLE "12:cjc029_1973"
    INDEX 01 00:03:25
  TRACK 03 AUDIO
    TITLE "0:"
    INDEX 01 00:04:68
  TRACK 04 AUDIO
    TITLE "12:cjc029_1974"
    INDEX 01 00:05:42
  TRACK 05 AUDIO
    TITLE "0:"
    INDEX 01 00:06:65
  TRACK 06 AUDIO
    TITLE "13:cjc029_1975"
    INDEX 01 00:07:64
  TRACK 07 AUDIO
    TITLE "0:"
    INDEX 01 00:09:10
  TRACK 08 AUDIO
    TITLE "14:cjc029_1976"
    INDEX 01 00:09:14
  TRACK 09 AUDIO
    TITLE "0:"
    INDEX 01 00:10:49
  TRACK 10 AUDIO
    TITLE "13:cjc029_1977"
    INDEX 01 00:11:31
  TRACK 11 AUDIO
    TITLE "0:"
    INDEX 01 00:12:48
  TRACK 12 AUDIO
    TITLE "14:cjc029_1978"
    INDEX 01 00:12:54
  TRACK 13 AUDIO
    TITLE "0:"
    INDEX 01 00:14:41
  TRACK 14 AUDIO
    TITLE "13:cjc029_1979"
    INDEX 01 00:15:23
  TRACK 15 AUDIO
    TITLE "0:"
    INDEX 01 00:16:42
  TRACK 16 AUDIO
    TITLE "14:cjc029_1980"
    INDEX 01 00:16:48
  TRACK 17 AUDIO
    TITLE "0:"
    INDEX 01 00:20:67
  TRACK 18 AUDIO
    TITLE "13:cjc029_1981"
    INDEX 01 00:21:47
  TRACK 19 AUDIO
    TITLE "0:"
    INDEX 01 00:22:74
  TRACK 20 AUDIO
    TITLE "14:cjc029_1982"
    INDEX 01 00:23:06
  TRACK 21 AUDIO
    TITLE "0:"
    INDEX 01 00:25:46
  TRACK 22 AUDIO
    TITLE "13:cjc029_1983"
    INDEX 01 00:26:28
  TRACK 23 AUDIO
    TITLE "0:"
    INDEX 01 00:27:39
  TRACK 24 AUDIO
    TITLE "14:cjc029_1984"
    INDEX 01 00:27:45
  TRACK 25 AUDIO
    TITLE "0:"
    INDEX 01 00:30:42
  TRACK 26 AUDIO
    TITLE "13:cjc029_1985"
    INDEX 01 00:31:26
  TRACK 27 AUDIO
    TITLE "0:"
    INDEX 01 00:32:35
  TRACK 28 AUDIO
    TITLE "14:cjc029_1986"
    INDEX 01 00:32:41
  TRACK 29 AUDIO
    TITLE "0:"
    INDEX 01 00:34:65
  TRACK 30 AUDIO
    TITLE "13:cjc029_1987"
    INDEX 01 00:35:45
  TRACK 31 AUDIO
    TITLE "0:"
    INDEX 01 00:36:52
  TRACK 32 AUDIO
    TITLE "14:cjc029_1988"
    INDEX 01 00:36:56
  TRACK 33 AUDIO
    TITLE "0:"
    INDEX 01 00:38:14
  TRACK 34 AUDIO
    TITLE "13:cjc029_1989"
    INDEX 01 00:38:69
  TRACK 35 AUDIO
    TITLE "0:"
    INDEX 01 00:39:70
  TRACK 36 AUDIO
    TITLE "14:cjc029_1990"
    INDEX 01 00:39:72
  TRACK 37 AUDIO
    TITLE "0:"
    INDEX 01 00:41:14
  TRACK 38 AUDIO
    TITLE "13:cjc029_1991"
    INDEX 01 00:41:69
  TRACK 39 AUDIO
    TITLE "0:"
    INDEX 01 00:43:03
  TRACK 40 AUDIO
    TITLE "14:cjc029_1992"
    INDEX 01 00:43:07
  TRACK 41 AUDIO
    TITLE "0:"
    INDEX 01 00:45:20
  TRACK 42 AUDIO
    TITLE "13:cjc029_1993"
    INDEX 01 00:46:04
  TRACK 43 AUDIO
    TITLE "0:"
    INDEX 01 00:47:21
  TRACK 44 AUDIO
    TITLE "14:cjc029_1994"
    INDEX 01 00:47:25
  TRACK 45 AUDIO
    TITLE "0:"
    INDEX 01 00:50:01
  TRACK 46 AUDIO
    TITLE "13:cjc029_1995"
    INDEX 01 00:50:58
  TRACK 47 AUDIO
    TITLE "0:"
    INDEX 01 00:51:71
  TRACK 48 AUDIO
    TITLE "14:cjc029_1996"
    INDEX 01 00:51:73
  TRACK 49 AUDIO
    TITLE "0:"
    INDEX 01 00:53:39
  TRACK 50 AUDIO
    TITLE "13:cjc029_1997"
    INDEX 01 00:54:21
  TRACK 51 AUDIO
    TITLE "0:"
    INDEX 01 00:55:36
  TRACK 52 AUDIO
    TITLE "14:cjc029_1998"
    INDEX 01 00:55:38
  TRACK 53 AUDIO
    TITLE "0:"
    INDEX 01 00:56:57
  TRACK 54 AUDIO
    TITLE "13:cjc029_1999"
    INDEX 01 00:57:39
  TRACK 55 AUDIO
    TITLE "0:"
    INDEX 01 00:58:48
  TRACK 56 AUDIO
    TITLE "14:cjc029_2000"
    INDEX 01 00:58:50
  TRACK 57 AUDIO
    TITLE "0:"
    INDEX 01 01:02:54
  TRACK 58 AUDIO
    TITLE "13:cjc029_2001"
    INDEX 01 01:03:35
  TRACK 59 AUDIO
    TITLE "0:"
    INDEX 01 01:04:60
  TRACK 60 AUDIO
    TITLE "14:cjc029_2002"
    INDEX 01 01:04:64
  TRACK 61 AUDIO
    TITLE "0:"
    INDEX 01 01:07:55
  TRACK 62 AUDIO
    TITLE "13:cjc029_2003"
    INDEX 01 01:08:36
  TRACK 63 AUDIO
    TITLE "0:"
    INDEX 01 01:09:61
  TRACK 64 AUDIO
    TITLE "14:cjc029_2004"
    INDEX 01 01:09:65
  TRACK 65 AUDIO
    TITLE "0:"
    INDEX 01 01:12:60
